<?xml version="1.0" encoding="UTF-8"?>
<svg id="Foreground" width="26" height="26" enable-background="new 0 0 16 16" version="1.0" viewBox="0 0 18.909 18.909" xml:space="preserve" xmlns="http://www.w3.org/2000/svg"><g><circle cx="9.4545" cy="9.4545" r="8" fill="#303030" stroke-width="0"/><path d="m6.5511 6.5727h0.72727c0.00754-8.72e-5 0.01512-3.345e-4 0.022727 0 0.18542 0.00815 0.37081 0.093513 0.5 0.22727l1.6591 1.6591 1.6818-1.6591c0.19318-0.16764 0.32485-0.22218 0.5-0.22727h0.72727v0.72727c0 0.20834-0.02497 0.40047-0.18182 0.54545l-1.6591 1.6591 1.6364 1.6364c0.13686 0.13685 0.20454 0.32978 0.20454 0.52273v0.72727h-0.72727c-0.19295-7e-6 -0.38588-0.06771-0.52273-0.20454l-1.6591-1.6591-1.6591 1.6591c-0.13685 0.13686-0.32979 0.20454-0.52273 0.20454h-0.72727v-0.72727c-2.2e-6 -0.19294 0.06768-0.38588 0.20455-0.52273l1.6591-1.6364-1.6591-1.6591c-0.15327-0.14155-0.22048-0.34127-0.20455-0.54545z" color="#bebebe" enable-background="new" fill="#fff" style="text-decoration-line:none;text-indent:0;text-transform:none"/></g></svg>
